<svg width="18" height="17" viewBox="0 0 18 17" fill="none" xmlns="http://www.w3.org/2000/svg">
<path fill-rule="evenodd" clip-rule="evenodd" d="M0 15.75C0 15.3358 0.335786 15 0.75 15H11.75C12.1642 15 12.5 15.3358 12.5 15.75C12.5 16.1642 12.1642 16.5 11.75 16.5H0.75C0.335786 16.5 0 16.1642 0 15.75Z" fill="white"/>
<path fill-rule="evenodd" clip-rule="evenodd" d="M0 8.25C0 7.83579 0.335786 7.5 0.75 7.5H17.25C17.6642 7.5 18 7.83579 18 8.25C18 8.66421 17.6642 9 17.25 9H0.75C0.335786 9 0 8.66421 0 8.25Z" fill="white"/>
<path fill-rule="evenodd" clip-rule="evenodd" d="M0 8.25C0 7.83579 0.335786 7.5 0.75 7.5H17.25C17.6642 7.5 18 7.83579 18 8.25C18 8.66421 17.6642 9 17.25 9H0.75C0.335786 9 0 8.66421 0 8.25Z" fill="white"/>
<path fill-rule="evenodd" clip-rule="evenodd" d="M0 0.75C0 0.335786 0.335786 0 0.75 0H8.75C9.16421 0 9.5 0.335786 9.5 0.75C9.5 1.16421 9.16421 1.5 8.75 1.5H0.75C0.335786 1.5 0 1.16421 0 0.75Z" fill="white"/>
</svg>
