<svg width="18" height="17" viewBox="0 0 18 17" fill="none" xmlns="http://www.w3.org/2000/svg">
<path fill-rule="evenodd" clip-rule="evenodd" d="M2.63605 1.88604C2.92894 1.59315 3.40382 1.59315 3.69671 1.88604L15.364 13.5533C15.6569 13.8462 15.6569 14.3211 15.364 14.614C15.0711 14.9069 14.5962 14.9068 14.3033 14.614L2.63605 2.9467C2.34316 2.65381 2.34316 2.17893 2.63605 1.88604Z" fill="white"/>
<path fill-rule="evenodd" clip-rule="evenodd" d="M2.63604 14.614C2.34315 14.3211 2.34315 13.8462 2.63604 13.5533L14.3033 1.88604C14.5962 1.59316 15.0711 1.59315 15.364 1.88604C15.6569 2.17893 15.6568 2.65382 15.364 2.9467L3.6967 14.614C3.40381 14.9069 2.92893 14.9069 2.63604 14.614Z" fill="white"/>
</svg>
